<svg width="120" height="40" viewBox="0 0 120 40" fill="none" xmlns="http://www.w3.org/2000/svg">
<rect x="0.5" y="0.5" width="119" height="39" rx="5.5" fill="white"/>
<rect x="0.5" y="0.5" width="119" height="39" rx="5.5" stroke="black"/>
<path d="M24.7045 20.7631C24.7166 19.8432 24.9669 18.9413 25.4321 18.1412C25.8972 17.3411 26.5621 16.6688 27.3648 16.187C26.8548 15.476 26.1821 14.8908 25.4 14.478C24.6178 14.0652 23.7479 13.8361 22.8592 13.809C20.9635 13.6147 19.1258 14.9164 18.1598 14.9164C17.1751 14.9164 15.6878 13.8283 14.0862 13.8604C13.0502 13.8931 12.0406 14.1872 11.1557 14.7141C10.2708 15.241 9.54075 15.9827 9.03674 16.8669C6.85352 20.5573 8.48201 25.9809 10.5734 28.964C11.6197 30.4247 12.8426 32.0564 14.4428 31.9985C16.0086 31.9351 16.5934 31.0237 18.4835 31.0237C20.3561 31.0237 20.9048 31.9985 22.5374 31.9617C24.2176 31.9351 25.2762 30.4945 26.2859 29.02C27.0377 27.9792 27.6162 26.8288 28 25.6116C27.0238 25.2085 26.1908 24.5338 25.6048 23.6716C25.0187 22.8094 24.7056 21.7979 24.7045 20.7631Z" fill="black"/>
<path d="M21.6208 11.8471C22.5369 10.7734 22.9883 9.39335 22.879 8C21.4794 8.14352 20.1865 8.7966 19.258 9.82911C18.804 10.3335 18.4563 10.9203 18.2348 11.556C18.0132 12.1917 17.9222 12.8638 17.9669 13.5338C18.6669 13.5408 19.3595 13.3927 19.9924 13.1005C20.6254 12.8084 21.1821 12.3798 21.6208 11.8471Z" fill="black"/>
<path d="M37.008 8.11L38.943 11.44L40.896 8.11H41.778L39.348 12.169V14.5H38.538V12.151L36.117 8.11H37.008ZM41.9553 12.619V9.802H42.7473V12.466C42.7473 12.946 42.8313 13.306 42.9993 13.546C43.1673 13.786 43.4163 13.906 43.7463 13.906C43.9623 13.906 44.1693 13.861 44.3673 13.771C44.5713 13.675 44.7543 13.54 44.9163 13.366C45.0783 13.192 45.2043 12.985 45.2943 12.745V9.802H46.0863V13.6C46.0863 13.696 46.1043 13.768 46.1403 13.816C46.1823 13.858 46.2483 13.882 46.3383 13.888V14.5C46.2483 14.512 46.1763 14.518 46.1223 14.518C46.0743 14.524 46.0263 14.527 45.9783 14.527C45.8283 14.527 45.6993 14.482 45.5913 14.392C45.4833 14.296 45.4263 14.179 45.4203 14.041L45.4023 13.492C45.1983 13.84 44.9223 14.11 44.5743 14.302C44.2323 14.494 43.8573 14.59 43.4493 14.59C42.9573 14.59 42.5853 14.425 42.3333 14.095C42.0813 13.759 41.9553 13.267 41.9553 12.619ZM50.7176 14.5L49.0886 12.214L48.1976 13.051V14.5H47.4056V7.93H48.1976V12.223L50.6276 9.811H51.4826L49.6106 11.755L51.5726 14.5H50.7176ZM52.2752 7.93H53.0672V13.285C53.0672 13.543 53.1032 13.702 53.1752 13.762C53.2472 13.822 53.3342 13.852 53.4362 13.852C53.5622 13.852 53.6822 13.84 53.7962 13.816C53.9102 13.786 54.0062 13.756 54.0842 13.726L54.2102 14.374C54.0782 14.428 53.9222 14.473 53.7422 14.509C53.5622 14.545 53.4032 14.563 53.2652 14.563C52.9592 14.563 52.7162 14.476 52.5362 14.302C52.3622 14.128 52.2752 13.885 52.2752 13.573V7.93ZM54.4634 13.141C54.4634 12.841 54.5474 12.583 54.7154 12.367C54.8894 12.145 55.1264 11.974 55.4264 11.854C55.7264 11.734 56.0744 11.674 56.4704 11.674C56.6804 11.674 56.9024 11.692 57.1364 11.728C57.3704 11.758 57.5774 11.806 57.7574 11.872V11.53C57.7574 11.17 57.6494 10.888 57.4334 10.684C57.2174 10.474 56.9114 10.369 56.5154 10.369C56.2574 10.369 56.0084 10.417 55.7684 10.513C55.5344 10.603 55.2854 10.735 55.0214 10.909L54.7334 10.351C55.0394 10.141 55.3454 9.985 55.6514 9.883C55.9574 9.775 56.2754 9.721 56.6054 9.721C57.2054 9.721 57.6794 9.889 58.0274 10.225C58.3754 10.555 58.5494 11.017 58.5494 11.611V13.6C58.5494 13.696 58.5674 13.768 58.6034 13.816C58.6454 13.858 58.7114 13.882 58.8014 13.888V14.5C58.7234 14.512 58.6544 14.521 58.5944 14.527C58.5404 14.533 58.4954 14.536 58.4594 14.536C58.2734 14.536 58.1324 14.485 58.0364 14.383C57.9464 14.281 57.8954 14.173 57.8834 14.059L57.8654 13.762C57.6614 14.026 57.3944 14.23 57.0644 14.374C56.7344 14.518 56.4074 14.59 56.0834 14.59C55.7714 14.59 55.4924 14.527 55.2464 14.401C55.0004 14.269 54.8084 14.095 54.6704 13.879C54.5324 13.657 54.4634 13.411 54.4634 13.141ZM57.5234 13.474C57.5954 13.39 57.6524 13.306 57.6944 13.222C57.7364 13.132 57.7574 13.057 57.7574 12.997V12.412C57.5714 12.34 57.3764 12.286 57.1724 12.25C56.9684 12.208 56.7674 12.187 56.5694 12.187C56.1674 12.187 55.8404 12.268 55.5884 12.43C55.3424 12.586 55.2194 12.802 55.2194 13.078C55.2194 13.228 55.2584 13.375 55.3364 13.519C55.4204 13.657 55.5404 13.771 55.6964 13.861C55.8584 13.951 56.0564 13.996 56.2904 13.996C56.5364 13.996 56.7704 13.948 56.9924 13.852C57.2144 13.75 57.3914 13.624 57.5234 13.474ZM62.2278 14.59C61.8618 14.59 61.5288 14.5 61.2288 14.32C60.9288 14.14 60.6918 13.906 60.5178 13.618V14.5H59.8158V7.93H60.6078V10.738C60.8058 10.432 61.0488 10.186 61.3368 10C61.6248 9.814 61.9608 9.721 62.3448 9.721C62.6688 9.721 62.9598 9.79 63.2178 9.928C63.4758 10.06 63.6948 10.243 63.8748 10.477C64.0608 10.705 64.2018 10.966 64.2978 11.26C64.3998 11.548 64.4508 11.851 64.4508 12.169C64.4508 12.499 64.3938 12.811 64.2798 13.105C64.1718 13.393 64.0158 13.651 63.8118 13.879C63.6078 14.101 63.3708 14.275 63.1008 14.401C62.8368 14.527 62.5458 14.59 62.2278 14.59ZM62.0298 13.906C62.2638 13.906 62.4798 13.858 62.6778 13.762C62.8758 13.666 63.0468 13.537 63.1908 13.375C63.3348 13.213 63.4458 13.027 63.5238 12.817C63.6018 12.607 63.6408 12.391 63.6408 12.169C63.6408 11.863 63.5748 11.575 63.4428 11.305C63.3168 11.035 63.1368 10.819 62.9028 10.657C62.6748 10.489 62.4078 10.405 62.1018 10.405C61.8798 10.405 61.6728 10.456 61.4808 10.558C61.2888 10.66 61.1178 10.795 60.9678 10.963C60.8238 11.125 60.7038 11.305 60.6078 11.503V12.862C60.6378 13.012 60.7008 13.15 60.7968 13.276C60.8928 13.402 61.0098 13.513 61.1478 13.609C61.2858 13.699 61.4298 13.771 61.5798 13.825C61.7358 13.879 61.8858 13.906 62.0298 13.906ZM70.4175 14.545C69.9675 14.545 69.5595 14.455 69.1935 14.275C68.8275 14.095 68.5095 13.852 68.2395 13.546C67.9755 13.234 67.7715 12.886 67.6275 12.502C67.4835 12.112 67.4115 11.713 67.4115 11.305C67.4115 10.879 67.4865 10.474 67.6365 10.09C67.7925 9.7 68.0055 9.355 68.2755 9.055C68.5515 8.749 68.8725 8.509 69.2385 8.335C69.6045 8.155 70.0035 8.065 70.4355 8.065C70.8855 8.065 71.2935 8.158 71.6595 8.344C72.0255 8.53 72.3405 8.779 72.6045 9.091C72.8685 9.403 73.0725 9.751 73.2165 10.135C73.3605 10.519 73.4325 10.912 73.4325 11.314C73.4325 11.74 73.3575 12.148 73.2075 12.538C73.0575 12.922 72.8445 13.267 72.5685 13.573C72.2985 13.873 71.9805 14.11 71.6145 14.284C71.2485 14.458 70.8495 14.545 70.4175 14.545ZM68.2305 11.305C68.2305 11.629 68.2815 11.944 68.3835 12.25C68.4915 12.55 68.6415 12.817 68.8335 13.051C69.0255 13.285 69.2565 13.471 69.5265 13.609C69.7965 13.747 70.0965 13.816 70.4265 13.816C70.7685 13.816 71.0745 13.744 71.3445 13.6C71.6145 13.456 71.8425 13.264 72.0285 13.024C72.2205 12.784 72.3645 12.514 72.4605 12.214C72.5625 11.914 72.6135 11.611 72.6135 11.305C72.6135 10.981 72.5595 10.669 72.4515 10.369C72.3495 10.069 72.1995 9.802 72.0015 9.568C71.8095 9.328 71.5785 9.142 71.3085 9.01C71.0445 8.872 70.7505 8.803 70.4265 8.803C70.0845 8.803 69.7785 8.875 69.5085 9.019C69.2385 9.157 69.0075 9.346 68.8155 9.586C68.6295 9.826 68.4855 10.096 68.3835 10.396C68.2815 10.69 68.2305 10.993 68.2305 11.305ZM74.45 7.93H75.242V13.285C75.242 13.543 75.278 13.702 75.35 13.762C75.422 13.822 75.509 13.852 75.611 13.852C75.737 13.852 75.857 13.84 75.971 13.816C76.085 13.786 76.181 13.756 76.259 13.726L76.385 14.374C76.253 14.428 76.097 14.473 75.917 14.509C75.737 14.545 75.578 14.563 75.44 14.563C75.134 14.563 74.891 14.476 74.711 14.302C74.537 14.128 74.45 13.885 74.45 13.573V7.93ZM77.0072 14.5V9.802H77.7992V14.5H77.0072ZM77.0072 8.92V7.93H77.7992V8.92H77.0072ZM80.6924 14.59C80.3024 14.59 79.9364 14.527 79.5944 14.401C79.2524 14.269 78.9584 14.074 78.7124 13.816L79.0184 13.258C79.2884 13.51 79.5584 13.69 79.8284 13.798C80.0984 13.906 80.3744 13.96 80.6564 13.96C80.9804 13.96 81.2444 13.9 81.4484 13.78C81.6524 13.654 81.7544 13.471 81.7544 13.231C81.7544 13.057 81.7004 12.928 81.5924 12.844C81.4904 12.76 81.3434 12.691 81.1514 12.637C80.9594 12.577 80.7314 12.511 80.4674 12.439C80.1434 12.343 79.8704 12.241 79.6484 12.133C79.4264 12.025 79.2584 11.89 79.1444 11.728C79.0304 11.566 78.9734 11.362 78.9734 11.116C78.9734 10.816 79.0514 10.564 79.2074 10.36C79.3634 10.15 79.5764 9.991 79.8464 9.883C80.1224 9.775 80.4344 9.721 80.7824 9.721C81.1304 9.721 81.4454 9.775 81.7274 9.883C82.0094 9.991 82.2524 10.15 82.4564 10.36L82.0964 10.909C81.9104 10.717 81.7064 10.576 81.4844 10.486C81.2624 10.39 81.0134 10.342 80.7374 10.342C80.5754 10.342 80.4164 10.363 80.2604 10.405C80.1044 10.441 79.9754 10.51 79.8734 10.612C79.7714 10.708 79.7204 10.846 79.7204 11.026C79.7204 11.176 79.7594 11.296 79.8374 11.386C79.9214 11.47 80.0414 11.542 80.1974 11.602C80.3594 11.662 80.5544 11.728 80.7824 11.8C81.1364 11.902 81.4424 12.004 81.7004 12.106C81.9644 12.208 82.1684 12.34 82.3124 12.502C82.4564 12.664 82.5284 12.889 82.5284 13.177C82.5284 13.621 82.3604 13.969 82.0244 14.221C81.6884 14.467 81.2444 14.59 80.6924 14.59ZM87.5529 14.5H86.7609V11.872C86.7609 11.392 86.6739 11.032 86.4999 10.792C86.3319 10.552 86.0889 10.432 85.7709 10.432C85.5669 10.432 85.3599 10.486 85.1499 10.594C84.9459 10.702 84.7659 10.849 84.6099 11.035C84.4539 11.215 84.3399 11.425 84.2679 11.665V14.5H83.4759V7.93H84.2679V10.81C84.4539 10.474 84.7059 10.21 85.0239 10.018C85.3479 9.82 85.6959 9.721 86.0679 9.721C86.3499 9.721 86.5839 9.772 86.7699 9.874C86.9619 9.97 87.1149 10.108 87.2289 10.288C87.3429 10.468 87.4239 10.678 87.4719 10.918C87.5259 11.152 87.5529 11.41 87.5529 11.692V14.5Z" fill="black"/>
<path d="M38.2061 30.5H36.1758L40.3066 18.5029H42.5391L46.6611 30.5H44.5518L43.4883 27.1777H39.2783L38.2061 30.5ZM41.4316 20.5771H41.3525L39.7266 25.6484H43.04L41.4316 20.5771ZM52.2644 30.6318C51.0603 30.6318 50.1462 30.0605 49.654 29.208H49.5837V33.585H47.6325V21.21H49.531V22.5723H49.6013C50.1111 21.6846 51.0603 21.0869 52.3083 21.0869C54.3913 21.0869 55.8767 22.6602 55.8767 25.4375V26.2637C55.8767 29.0234 54.4089 30.6318 52.2644 30.6318ZM51.8161 29.0234C53.0554 29.0234 53.8991 28.0303 53.8991 26.1582V25.5078C53.8991 23.7061 53.1081 22.6777 51.781 22.6777C50.4187 22.6777 49.5661 23.7852 49.5661 25.499V26.1582C49.5661 27.916 50.4275 29.0234 51.8161 29.0234ZM62.183 30.6318C60.9789 30.6318 60.0649 30.0605 59.5727 29.208H59.5024V33.585H57.5512V21.21H59.4496V22.5723H59.52C60.0297 21.6846 60.9789 21.0869 62.227 21.0869C64.31 21.0869 65.7954 22.6602 65.7954 25.4375V26.2637C65.7954 29.0234 64.3276 30.6318 62.183 30.6318ZM61.7348 29.0234C62.9741 29.0234 63.8178 28.0303 63.8178 26.1582V25.5078C63.8178 23.7061 63.0268 22.6777 61.6996 22.6777C60.3373 22.6777 59.4848 23.7852 59.4848 25.499V26.1582C59.4848 27.916 60.3461 29.0234 61.7348 29.0234ZM69.8387 27.1689H71.7899C71.8778 28.2061 72.7919 29.0938 74.4882 29.0938C76.0438 29.0938 76.9667 28.3643 76.9667 27.2305C76.9667 26.3164 76.3514 25.8242 75.0682 25.5166L73.0995 25.0244C71.5526 24.6641 70.1639 23.7412 70.1639 21.79C70.1639 19.4961 72.1679 18.2393 74.497 18.2393C76.8261 18.2393 78.7684 19.4961 78.8124 21.7373H76.8964C76.8085 20.7178 76.0262 19.874 74.4706 19.874C73.0995 19.874 72.1679 20.5244 72.1679 21.6406C72.1679 22.4229 72.7128 22.9854 73.829 23.2402L75.7889 23.7236C77.5907 24.1631 78.9618 25.0156 78.9618 27.0547C78.9618 29.4102 77.0546 30.7373 74.3387 30.7373C70.9989 30.7373 69.8827 28.7861 69.8387 27.1689ZM81.3395 21.21V18.9512H83.2555V21.21H85.066V22.7744H83.2555V27.7314C83.2555 28.7422 83.6334 29.0234 84.6793 29.0234C84.8463 29.0234 85.0045 29.0234 85.1188 29.0059V30.5C84.9605 30.5264 84.5914 30.5615 84.1959 30.5615C81.9371 30.5615 81.3131 29.7529 81.3131 27.8896V22.7744H80.0299V21.21H81.3395ZM90.3353 21.0518C93.0071 21.0518 94.4573 22.9326 94.4573 25.4639V26.2109C94.4573 28.8301 93.0159 30.6582 90.3353 30.6582C87.6546 30.6582 86.1956 28.8301 86.1956 26.2109V25.4639C86.1956 22.9414 87.6634 21.0518 90.3353 21.0518ZM90.3353 22.6162C88.8851 22.6162 88.1644 23.8027 88.1644 25.4902V26.2021C88.1644 27.8633 88.8763 29.085 90.3353 29.085C91.7943 29.085 92.4974 27.8721 92.4974 26.2021V25.4902C92.4974 23.7939 91.7855 22.6162 90.3353 22.6162ZM96.1055 30.5V21.21H98.0567V22.4316H98.127C98.3643 21.8516 99.0586 21.0781 100.351 21.0781C100.606 21.0781 100.825 21.0957 101.01 21.1309V22.8535C100.843 22.8096 100.5 22.7832 100.175 22.7832C98.6104 22.7832 98.083 23.75 98.083 24.998V30.5H96.1055ZM105.743 30.6582C103.256 30.6582 101.674 29.0146 101.674 26.2637V25.3232C101.674 22.7305 103.22 21.0518 105.664 21.0518C108.142 21.0518 109.636 22.792 109.636 25.4111V26.2988H103.598V26.5186C103.598 28.083 104.442 29.1201 105.769 29.1201C106.762 29.1201 107.439 28.6279 107.677 27.8281H109.531C109.25 29.3311 108.037 30.6582 105.743 30.6582ZM103.598 24.9365H107.729V24.9189C107.729 23.6006 106.912 22.5635 105.673 22.5635C104.416 22.5635 103.598 23.6006 103.598 24.9189V24.9365Z" fill="black"/>
</svg>
