<svg width="120" height="40" viewBox="0 0 120 40" fill="none" xmlns="http://www.w3.org/2000/svg">
<rect x="0.5" y="0.5" width="119" height="39" rx="5.5" fill="white"/>
<rect x="0.5" y="0.5" width="119" height="39" rx="5.5" stroke="black"/>
<path d="M17.8048 19.4617L8.0896 30.0059C8.09051 30.0078 8.09051 30.0106 8.09142 30.0125C8.38981 31.1574 9.41179 32 10.6254 32C11.1108 32 11.5662 31.8656 11.9567 31.6305L11.9877 31.6118L22.9229 25.1593L17.8048 19.4617Z" fill="#EA4335"/>
<path d="M27.6331 17.6662L27.624 17.6597L22.9028 14.8612L17.5839 19.7013L22.9219 25.1582L27.6176 22.3878C28.4406 21.9324 29 21.045 29 20.0223C29 19.0052 28.4489 18.1225 27.6331 17.6662Z" fill="#FBBC04"/>
<path d="M8.08942 9.99332C8.03102 10.2135 8 10.4449 8 10.6838V29.3164C8 29.5552 8.03102 29.7866 8.09034 30.0059L18.1386 19.7314L8.08942 9.99332Z" fill="#4285F4"/>
<path d="M17.8766 19.9999L22.9044 14.8594L11.9819 8.38351C11.585 8.13997 11.1215 8 10.626 8C9.41237 8 8.38856 8.84447 8.09018 9.99034C8.09018 9.99128 8.08927 9.99221 8.08927 9.99314L17.8766 19.9999Z" fill="#34A853"/>
<path d="M36.93 7.9L39.25 11.72L41.59 7.9H42.35L39.6 12.36V15H38.9V12.34L36.16 7.9H36.93ZM46.2937 15.05C45.7337 15.05 45.2603 14.95 44.8737 14.75C44.487 14.55 44.1803 14.2833 43.9537 13.95C43.727 13.61 43.5603 13.2267 43.4537 12.8C43.3537 12.3733 43.3037 11.9333 43.3037 11.48V7.9H43.9937V11.48C43.9937 11.8467 44.0303 12.2067 44.1037 12.56C44.1837 12.9133 44.3103 13.23 44.4837 13.51C44.657 13.79 44.8903 14.0133 45.1837 14.18C45.477 14.34 45.8437 14.42 46.2837 14.42C46.737 14.42 47.1103 14.3367 47.4037 14.17C47.7037 13.9967 47.937 13.77 48.1037 13.49C48.277 13.21 48.4003 12.8967 48.4737 12.55C48.547 12.1967 48.5837 11.84 48.5837 11.48V7.9H49.2837V11.48C49.2837 11.9533 49.2303 12.4067 49.1237 12.84C49.017 13.2733 48.8437 13.6533 48.6037 13.98C48.3703 14.3067 48.0637 14.5667 47.6837 14.76C47.3037 14.9533 46.8403 15.05 46.2937 15.05ZM50.9525 15V7.91H51.6525V12.03L55.5625 7.9H56.3325L53.4325 11.02L56.4825 15H55.6925L52.9825 11.44L51.6525 12.82V15H50.9525ZM57.3783 15V7.9H58.0783V14.38H62.1783V15H57.3783ZM65.4084 7.9H65.9984L68.9484 15H68.2084L67.2884 12.78H64.0984L63.1884 15H62.4384L65.4084 7.9ZM67.1284 12.23L65.6984 8.72L64.2484 12.23H67.1284ZM75.3062 13.17C75.3062 13.5233 75.2162 13.84 75.0362 14.12C74.8562 14.3933 74.6128 14.61 74.3062 14.77C74.0062 14.9233 73.6762 15 73.3162 15H69.9662V7.9H73.3862C73.7195 7.9 74.0062 7.99 74.2462 8.17C74.4928 8.34333 74.6795 8.57 74.8062 8.85C74.9395 9.12333 75.0062 9.41 75.0062 9.71C75.0062 10.0633 74.9162 10.39 74.7362 10.69C74.5562 10.99 74.3062 11.2133 73.9862 11.36C74.3928 11.48 74.7128 11.7033 74.9462 12.03C75.1862 12.3567 75.3062 12.7367 75.3062 13.17ZM74.6062 13.05C74.6062 12.81 74.5528 12.59 74.4462 12.39C74.3395 12.1833 74.1928 12.0167 74.0062 11.89C73.8262 11.7633 73.6195 11.7 73.3862 11.7H70.6662V14.39H73.3162C73.5562 14.39 73.7728 14.3267 73.9662 14.2C74.1595 14.0733 74.3128 13.91 74.4262 13.71C74.5462 13.5033 74.6062 13.2833 74.6062 13.05ZM70.6662 8.51V11.13H73.1062C73.3395 11.13 73.5462 11.07 73.7262 10.95C73.9062 10.8233 74.0495 10.66 74.1562 10.46C74.2628 10.26 74.3162 10.0467 74.3162 9.82C74.3162 9.58 74.2662 9.36333 74.1662 9.17C74.0662 8.97 73.9295 8.81 73.7562 8.69C73.5828 8.57 73.3862 8.51 73.1662 8.51H70.6662ZM82.0352 15.05C81.5352 15.05 81.0818 14.95 80.6752 14.75C80.2685 14.55 79.9185 14.28 79.6252 13.94C79.3318 13.5933 79.1052 13.2067 78.9452 12.78C78.7852 12.3467 78.7052 11.9033 78.7052 11.45C78.7052 10.9767 78.7885 10.5267 78.9552 10.1C79.1218 9.66667 79.3552 9.28333 79.6552 8.95C79.9618 8.61 80.3185 8.34333 80.7252 8.15C81.1318 7.95 81.5718 7.85 82.0452 7.85C82.5452 7.85 82.9985 7.95333 83.4052 8.16C83.8118 8.36667 84.1585 8.64333 84.4452 8.99C84.7385 9.33667 84.9652 9.72333 85.1252 10.15C85.2852 10.5767 85.3652 11.0133 85.3652 11.46C85.3652 11.9333 85.2818 12.3867 85.1152 12.82C84.9485 13.2467 84.7152 13.63 84.4152 13.97C84.1152 14.3033 83.7618 14.5667 83.3552 14.76C82.9485 14.9533 82.5085 15.05 82.0352 15.05ZM79.4052 11.45C79.4052 11.8367 79.4685 12.21 79.5952 12.57C79.7218 12.9233 79.9018 13.24 80.1352 13.52C80.3685 13.7933 80.6452 14.0133 80.9652 14.18C81.2918 14.34 81.6485 14.42 82.0352 14.42C82.4418 14.42 82.8052 14.3367 83.1252 14.17C83.4518 13.9967 83.7285 13.77 83.9552 13.49C84.1885 13.2033 84.3652 12.8833 84.4852 12.53C84.6052 12.1767 84.6652 11.8167 84.6652 11.45C84.6652 11.0633 84.6018 10.6933 84.4752 10.34C84.3485 9.98667 84.1652 9.67 83.9252 9.39C83.6918 9.11 83.4152 8.89 83.0952 8.73C82.7752 8.57 82.4218 8.49 82.0352 8.49C81.6352 8.49 81.2718 8.57333 80.9452 8.74C80.6252 8.90667 80.3485 9.13333 80.1152 9.42C79.8885 9.7 79.7118 10.0167 79.5852 10.37C79.4652 10.7233 79.4052 11.0833 79.4052 11.45ZM86.6849 15V7.9H87.3849V14.38H91.4849V15H86.6849ZM92.515 15V7.9H93.215V15H92.515ZM99.1455 9.23C99.0455 9.11667 98.9288 9.01667 98.7955 8.93C98.6621 8.83667 98.5121 8.75667 98.3455 8.69C98.1788 8.62333 97.9988 8.57 97.8055 8.53C97.6188 8.49 97.4188 8.47 97.2055 8.47C96.5855 8.47 96.1288 8.59 95.8355 8.83C95.5488 9.06333 95.4055 9.38333 95.4055 9.79C95.4055 10.07 95.4721 10.29 95.6055 10.45C95.7455 10.61 95.9621 10.74 96.2555 10.84C96.5488 10.94 96.9221 11.0433 97.3755 11.15C97.8821 11.2567 98.3188 11.3833 98.6855 11.53C99.0521 11.6767 99.3355 11.8767 99.5355 12.13C99.7355 12.3767 99.8355 12.7133 99.8355 13.14C99.8355 13.4667 99.7721 13.75 99.6455 13.99C99.5188 14.23 99.3421 14.43 99.1155 14.59C98.8888 14.75 98.6188 14.87 98.3055 14.95C97.9921 15.0233 97.6488 15.06 97.2755 15.06C96.9088 15.06 96.5555 15.0233 96.2155 14.95C95.8821 14.87 95.5655 14.7567 95.2655 14.61C94.9655 14.4567 94.6855 14.2633 94.4255 14.03L94.7755 13.46C94.9021 13.5933 95.0521 13.72 95.2255 13.84C95.4055 13.9533 95.6021 14.0567 95.8155 14.15C96.0355 14.2433 96.2688 14.3167 96.5155 14.37C96.7688 14.4167 97.0288 14.44 97.2955 14.44C97.8621 14.44 98.3021 14.3367 98.6155 14.13C98.9355 13.9233 99.0955 13.6167 99.0955 13.21C99.0955 12.9167 99.0155 12.6833 98.8555 12.51C98.6955 12.33 98.4555 12.1833 98.1355 12.07C97.8155 11.9567 97.4221 11.8467 96.9555 11.74C96.4621 11.6267 96.0455 11.5 95.7055 11.36C95.3655 11.22 95.1088 11.0367 94.9355 10.81C94.7688 10.5767 94.6855 10.27 94.6855 9.89C94.6855 9.45 94.7921 9.08 95.0055 8.78C95.2255 8.47333 95.5255 8.24333 95.9055 8.09C96.2855 7.93 96.7221 7.85 97.2155 7.85C97.5288 7.85 97.8188 7.88333 98.0855 7.95C98.3588 8.01 98.6088 8.1 98.8355 8.22C99.0688 8.34 99.2855 8.49 99.4855 8.67L99.1455 9.23ZM106.67 7.9V15H105.98V11.68H101.77V15H101.07V7.9H101.77V11.06H105.98V7.9H106.67Z" fill="black"/>
<path d="M93.5181 31.4097H95.1469V20.3981H93.5181V31.4097ZM108.189 24.3646L106.322 29.1388H106.266L104.328 24.3646H102.573L105.479 31.0371L103.823 34.749H105.521L110 24.3646H108.189ZM98.9519 30.1588C98.4176 30.1588 97.6739 29.8902 97.6739 29.2234C97.6739 28.3742 98.6001 28.0483 99.4005 28.0483C100.116 28.0483 100.454 28.2042 100.889 28.4165C100.762 29.4365 99.892 30.1588 98.9519 30.1588ZM99.1483 24.1241C97.969 24.1241 96.7469 24.6482 96.2424 25.8101L97.6879 26.4188C97.9969 25.8101 98.5721 25.611 99.1762 25.611C100.019 25.611 100.875 26.121 100.889 27.0283V27.1411C100.594 26.971 99.9627 26.7165 99.1902 26.7165C97.632 26.7165 96.0451 27.5806 96.0451 29.1952C96.0451 30.6689 97.323 31.6184 98.7546 31.6184C99.8501 31.6184 100.454 31.1225 100.833 30.5411H100.889V31.3912H102.461V27.1692C102.461 25.2146 101.015 24.1241 99.1483 24.1241M89.0821 25.7053H86.7655V21.9308H89.0821C90.2998 21.9308 90.9911 22.9482 90.9911 23.8176C90.9911 24.6711 90.2998 25.7053 89.0821 25.7053ZM89.0402 20.3981H85.1375V31.4097H86.7655V27.2379H89.0402C90.8453 27.2379 92.6199 25.9184 92.6199 23.8176C92.6199 21.7168 90.8453 20.3981 89.0402 20.3981M67.7583 30.1606C66.6332 30.1606 65.6913 29.2102 65.6913 27.9047C65.6913 26.5852 66.6332 25.6198 67.7583 25.6198C68.8695 25.6198 69.7406 26.5852 69.7406 27.9047C69.7406 29.2102 68.8695 30.1606 67.7583 30.1606ZM69.6289 24.9812H69.5722C69.2064 24.5417 68.5038 24.1444 67.6178 24.1444C65.7611 24.1444 64.0599 25.7898 64.0599 27.9047C64.0599 30.0047 65.7611 31.6369 67.6178 31.6369C68.5038 31.6369 69.2064 31.2396 69.5722 30.7851H69.6289V31.3251C69.6289 32.7582 68.8695 33.5246 67.6457 33.5246C66.6471 33.5246 66.0282 32.8005 65.7751 32.1901L64.3549 32.7864C64.7626 33.78 65.8458 35 67.6457 35C69.5582 35 71.1757 33.8646 71.1757 31.0978V24.3708H69.6289V24.9812ZM72.3008 31.4097H73.9322V20.3973H72.3008V31.4097ZM76.3362 27.777C76.2943 26.3298 77.4474 25.5916 78.2766 25.5916C78.9243 25.5916 79.4725 25.9176 79.6549 26.3862L76.3362 27.777ZM81.3989 26.528C81.0899 25.6912 80.1472 24.1444 78.2208 24.1444C76.3083 24.1444 74.7196 25.6621 74.7196 27.8907C74.7196 29.9906 76.2943 31.6369 78.4032 31.6369C80.1053 31.6369 81.0899 30.5869 81.4976 29.9765L80.2319 29.1247C79.8103 29.7493 79.2333 30.1606 78.4032 30.1606C77.5739 30.1606 76.983 29.7774 76.6033 29.0261L81.5674 26.9534L81.3989 26.528ZM41.8501 25.2939V26.883H45.6184C45.5058 27.777 45.2107 28.4297 44.7612 28.8834C44.2121 29.4374 43.3541 30.0479 41.8501 30.0479C39.5291 30.0479 37.7152 28.1602 37.7152 25.8189C37.7152 23.4767 39.5291 21.5899 41.8501 21.5899C43.1018 21.5899 44.0157 22.0867 44.6905 22.7254L45.8017 21.604C44.8589 20.6959 43.6081 20 41.8501 20C38.6719 20 36 22.6117 36 25.8189C36 29.0261 38.6719 31.6369 41.8501 31.6369C43.5653 31.6369 44.8589 31.0688 45.8715 30.0047C46.9129 28.9547 47.2358 27.4793 47.2358 26.2866C47.2358 25.9176 47.2079 25.5775 47.1512 25.2939H41.8501ZM51.5208 30.1606C50.3957 30.1606 49.425 29.2243 49.425 27.8907C49.425 26.5421 50.3957 25.6198 51.5208 25.6198C52.6451 25.6198 53.6158 26.5421 53.6158 27.8907C53.6158 29.2243 52.6451 30.1606 51.5208 30.1606ZM51.5208 24.1444C49.4669 24.1444 47.7936 25.7194 47.7936 27.8907C47.7936 30.0479 49.4669 31.6369 51.5208 31.6369C53.5739 31.6369 55.2472 30.0479 55.2472 27.8907C55.2472 25.7194 53.5739 24.1444 51.5208 24.1444ZM59.65 30.1606C58.5249 30.1606 57.5542 29.2243 57.5542 27.8907C57.5542 26.5421 58.5249 25.6198 59.65 25.6198C60.7752 25.6198 61.745 26.5421 61.745 27.8907C61.745 29.2243 60.7752 30.1606 59.65 30.1606ZM59.65 24.1444C57.597 24.1444 55.9237 25.7194 55.9237 27.8907C55.9237 30.0479 57.597 31.6369 59.65 31.6369C61.7031 31.6369 63.3764 30.0479 63.3764 27.8907C63.3764 25.7194 61.7031 24.1444 59.65 24.1444Z" fill="black"/>
</svg>
